<svg id="Layer_1" data-name="Layer 1" xmlns="http://www.w3.org/2000/svg" viewBox="0 0 205.05 144.41"><defs><style>.cls-1{fill:#424f5c;}</style></defs><title>menu-icon-addcontacts</title><path class="cls-1" d="M497.07,341q4.63,2.31,4.63,7.87V384a9.21,9.21,0,0,1-2.08,6,6.58,6.58,0,0,1-5.32,2.55H380.67a6.35,6.35,0,0,1-5.09-2.55,9.21,9.21,0,0,1-2.08-6V348.83q0-5.55,4.63-7.87l31.93-14.81,12.5-5.79a34.18,34.18,0,0,1-13.42-15.27,41.34,41.34,0,0,1-4.4-18.74,35.2,35.2,0,0,1,.46-5.79,53.86,53.86,0,0,1,1.16-5.32A39.74,39.74,0,0,1,418,255.8a29,29,0,0,1,39.46.23,39.3,39.3,0,0,1,11.57,19.9,53.73,53.73,0,0,1,1.16,10.41,44.44,44.44,0,0,1-3.7,17.82,33.83,33.83,0,0,1-13.42,15.74l13.19,6.25Z" transform="translate(-296.65 -248.16)"/><path class="cls-1" d="M349.87,292.09h39.94v13.38H349.87v41.3H336.39v-41.3H296.65V292.09h39.74V250.6h13.47v41.49Z" transform="translate(-296.65 -248.16)"/></svg>