<svg id="Layer_1" data-name="Layer 1" xmlns="http://www.w3.org/2000/svg" viewBox="0 0 498.88 686.4"><defs><style>.cls-1{fill:#424f5c;}</style></defs><title>menu-icon-delete</title><path class="cls-1" d="M298,729.29H725a16,16,0,0,0,16-16V269.45H282V713.29a15.94,15.94,0,0,0,16,16h0ZM603.6,355.53a26.17,26.17,0,0,1,26.16-26.16h0.56a26.17,26.17,0,0,1,26.16,26.16V643.29a26.17,26.17,0,0,1-26.16,26.16h-0.56a26.17,26.17,0,0,1-26.16-26.16V355.53Zm-118.56,0a26.17,26.17,0,0,1,26.16-26.16h0.56a26.17,26.17,0,0,1,26.16,26.16V643.29a26.17,26.17,0,0,1-26.16,26.16H511.2A26.17,26.17,0,0,1,485,643.29V355.53Zm-118.56,0a26.17,26.17,0,0,1,26.16-26.16h0.56a26.17,26.17,0,0,1,26.16,26.16V643.29a26.17,26.17,0,0,1-26.16,26.16h-0.56a26.17,26.17,0,0,1-26.16-26.16V355.53Zm0,0" transform="translate(-262 -42.89)"/><path class="cls-1" d="M613.76,118.89v-36a40,40,0,0,0-40-40H449.12a40,40,0,0,0-40,40v36h32v-28a16,16,0,0,1,16-16H565.68a16,16,0,0,1,16,16v28h32.08Zm0,0" transform="translate(-262 -42.89)"/><path class="cls-1" d="M262,166.89v54.56a16,16,0,0,0,16,16H744.88a16,16,0,0,0,16-16V166.89a16,16,0,0,0-16-16H278a16,16,0,0,0-16,16h0Zm0,0" transform="translate(-262 -42.89)"/></svg>