<svg id="Layer_1" data-name="Layer 1" xmlns="http://www.w3.org/2000/svg" xmlns:xlink="http://www.w3.org/1999/xlink" viewBox="0 0 72 46.4"><defs><style>.cls-1{fill:none;}.cls-2{clip-path:url(#clip-path);}.cls-3{fill:#424f5c;}</style><clipPath id="clip-path" transform="translate(-475 -362)"><rect class="cls-1" x="475" y="362" width="72" height="47"/></clipPath></defs><title>menu-icon-email</title><g class="cls-2"><path class="cls-3" d="M477.38,366.34l30,16.11a8.6,8.6,0,0,0,7.25,0l30-16.11c2-1.05,3.8-4.34.21-4.34H477.16c-3.59,0-1.74,3.29.21,4.34h0Z" transform="translate(-475 -362)"/><path class="cls-3" d="M545.45,374.34l-30.83,16.11a8.6,8.6,0,0,1-7.25,0l-30.83-16.11c-1.56-.82-1.55.14-1.55,0.88v29.34c0,1.68,2.23,3.84,4,3.84H543c1.74,0,4-2.16,4-3.84V375.22c0-.74,0-1.7-1.55-0.88h0Z" transform="translate(-475 -362)"/><path d="M545.45,374.34" transform="translate(-475 -362)"/></g></svg>